<svg width="46" height="46" viewBox="0 0 46 46" fill="none" xmlns="http://www.w3.org/2000/svg">
<path d="M34.4999 1.91663H11.4999C8.95917 1.91967 6.52338 2.93032 4.72682 4.72688C2.93026 6.52345 1.91961 8.95924 1.91656 11.5V26.8333C1.91935 29.0417 2.6834 31.1816 4.07994 32.8924C5.47648 34.6031 7.42011 35.7801 9.58323 36.225V42.1666C9.58318 42.5136 9.67733 42.8541 9.85564 43.1518C10.0339 43.4495 10.2897 43.6932 10.5957 43.8569C10.9016 44.0206 11.2463 44.0982 11.5929 44.0813C11.9395 44.0645 12.275 43.9539 12.5636 43.7613L23.5749 36.4166H34.4999C37.0406 36.4136 39.4764 35.4029 41.273 33.6064C43.0695 31.8098 44.0802 29.374 44.0832 26.8333V11.5C44.0802 8.95924 43.0695 6.52345 41.273 4.72688C39.4764 2.93032 37.0406 1.91967 34.4999 1.91663ZM30.6666 24.9166H15.3332C14.8249 24.9166 14.3374 24.7147 13.9779 24.3552C13.6185 23.9958 13.4166 23.5083 13.4166 23C13.4166 22.4916 13.6185 22.0041 13.9779 21.6447C14.3374 21.2852 14.8249 21.0833 15.3332 21.0833H30.6666C31.1749 21.0833 31.6624 21.2852 32.0219 21.6447C32.3813 22.0041 32.5832 22.4916 32.5832 23C32.5832 23.5083 32.3813 23.9958 32.0219 24.3552C31.6624 24.7147 31.1749 24.9166 30.6666 24.9166ZM34.4999 17.25H11.4999C10.9916 17.25 10.5041 17.048 10.1446 16.6886C9.78517 16.3291 9.58323 15.8416 9.58323 15.3333C9.58323 14.825 9.78517 14.3374 10.1446 13.978C10.5041 13.6186 10.9916 13.4166 11.4999 13.4166H34.4999C35.0082 13.4166 35.4957 13.6186 35.8552 13.978C36.2146 14.3374 36.4166 14.825 36.4166 15.3333C36.4166 15.8416 36.2146 16.3291 35.8552 16.6886C35.4957 17.048 35.0082 17.25 34.4999 17.25Z" fill="#3ECDFF"/>
</svg>
